<?xml version="1.0" encoding="UTF-8"?>
<!DOCTYPE svg PUBLIC "-//W3C//DTD SVG 1.1//EN" "http://www.w3.org/Graphics/SVG/1.1/DTD/svg11.dtd">
<!-- Creator: CorelDRAW 2020 (64 Bit) -->
<svg xmlns="http://www.w3.org/2000/svg" xml:space="preserve" width="150mm" height="105.8mm" version="1.1" style="shape-rendering:geometricPrecision; text-rendering:geometricPrecision; image-rendering:optimizeQuality; fill-rule:evenodd; clip-rule:evenodd"
viewBox="0 0 15000 10580"
 xmlns:xlink="http://www.w3.org/1999/xlink"
 xmlns:xodm="http://www.corel.com/coreldraw/odm/2003">
 <defs>
  <style type="text/css">
   <![CDATA[
    .fil0 {fill:#EBEAF0}
    .fil1 {fill:#EDEDED;fill-rule:nonzero}
   ]]>
  </style>
 </defs>
 <g id="Camada_x0020_1">
  <metadata id="CorelCorpID_0Corel-Layer"/>
  <g id="_2235564223008">
   <polygon class="fil0" points="6022.6,1473.83 7180.3,1473.83 7180.3,320.17 7498.58,1.91 7498.58,1.91 7816.87,320.17 7816.87,1473.83 8974.57,1473.83 9292.85,1792.1 9292.85,1792.1 8974.57,2110.39 7816.87,2110.39 7816.87,2984.79 9260.03,2984.79 9578.28,3303.06 9578.28,3303.06 9260.03,3621.35 7816.87,3621.35 7816.87,7441.69 7498.58,7759.95 7498.58,7759.95 7180.3,7441.69 7180.3,3621.35 5737.16,3621.35 5418.89,3303.06 5418.89,3303.06 5737.16,2984.79 7180.3,2984.79 7180.3,2110.39 6022.6,2110.39 5704.32,1792.1 5704.32,1792.1 "/>
   <path class="fil1" d="M1694.63 10431.7l0 -472.26c-172.78,118.07 -328.28,190.06 -541.37,190.06 -365.72,0 -679.6,-276.45 -679.6,-691.11 0,-417.55 313.88,-688.23 679.6,-688.23 213.09,0 368.59,63.35 541.37,178.53l0 -466.5c-152.62,-80.63 -342.68,-146.86 -590.33,-146.86 -596.08,0 -1105.77,446.34 -1105.77,1123.06 0,676.71 509.69,1123.05 1105.77,1123.05 247.65,0 434.83,-66.23 590.33,-149.74zm1053.94 141.1c475.14,0 837.97,-345.55 837.97,-837.97 0,-498.17 -362.83,-837.97 -837.97,-837.97 -469.38,0 -837.97,339.8 -837.97,837.97 0,495.3 368.59,837.97 837.97,837.97zm0 -414.66c-190.06,0 -371.47,-152.62 -371.47,-423.31 0,-270.68 181.41,-423.3 371.47,-423.3 190.05,0 374.35,152.62 374.35,423.3 0,267.81 -184.3,423.31 -374.35,423.31zm2027.26 -1261.28c-218.85,0 -385.87,115.19 -480.9,264.93l-8.64 0 -46.07 -224.61 -357.07 0 0 1595.31 460.74 0 0 -944.52c0,-158.38 112.3,-273.56 276.44,-273.56 167.02,0 253.41,89.27 253.41,285.08l0 933 460.74 0 0 -1065.46c0,-357.08 -213.09,-570.17 -558.65,-570.17zm1465.74 -328.28l-443.47 0 0 368.6 -227.49 0 0 380.11 224.61 0 0 601.84c0,397.39 227.49,647.92 650.8,647.92 112.3,0 184.3,-11.52 250.53,-25.92l0 -385.87c-51.84,8.64 -100.79,14.4 -143.98,14.4 -178.54,0 -311,-77.75 -311,-279.33l0 -573.04 426.18 0 0 -380.11 -426.18 0 0 -368.6zm725.67 1963.91l460.74 0 0 -780.38c0,-299.48 184.29,-403.15 377.23,-403.15 43.19,0 89.27,2.88 132.46,14.4l0 -431.94c-34.56,-8.64 -71.99,-11.52 -120.94,-11.52 -141.11,0 -325.4,63.35 -431.95,256.28l-5.76 0 -46.07 -239 -365.71 0 0 1595.31zm1923.59 40.31c475.14,0 837.97,-345.55 837.97,-837.97 0,-498.17 -362.83,-837.97 -837.97,-837.97 -469.38,0 -837.97,339.8 -837.97,837.97 0,495.3 368.59,837.97 837.97,837.97zm0 -414.66c-190.06,0 -371.47,-152.62 -371.47,-423.31 0,-270.68 181.41,-423.3 371.47,-423.3 190.05,0 374.35,152.62 374.35,423.3 0,267.81 -184.3,423.31 -374.35,423.31zm1137.45 374.35l460.75 0 0 -2312.34 -460.75 0 0 2312.34zm1981.19 0l466.5 0 0 -1719.14 627.76 0 0 -429.06 -1724.9 0 0 429.06 630.64 0 0 1719.14zm2617.58 -1102.9c178.54,-77.75 313.88,-230.37 313.88,-469.38 0,-319.64 -256.29,-575.92 -742.94,-575.92l-803.42 0 0 2148.2 837.97 0c518.34,0 765.98,-279.32 765.98,-601.84 0,-236.13 -129.58,-420.43 -371.47,-501.06zm-765.98 -647.92l328.28 0c198.69,0 308.12,103.67 308.12,244.77 0,138.23 -106.55,250.53 -316.76,250.53l-319.64 0 0 -495.3zm336.92 1353.43l-336.92 0 0 -526.97 345.56 0c201.57,0 334.03,103.67 334.03,262.05 0,152.62 -118.06,264.92 -342.67,264.92z"/>
  </g>
 </g>
</svg>
