<?xml version="1.0" encoding="UTF-8"?>
<!DOCTYPE svg PUBLIC "-//W3C//DTD SVG 1.1//EN" "http://www.w3.org/Graphics/SVG/1.1/DTD/svg11.dtd">
<!-- Creator: CorelDRAW 2020 (64 Bit) -->
<svg xmlns="http://www.w3.org/2000/svg" xml:space="preserve" width="100mm" height="38.27mm" version="1.1" style="shape-rendering:geometricPrecision; text-rendering:geometricPrecision; image-rendering:optimizeQuality; fill-rule:evenodd; clip-rule:evenodd"
viewBox="0 0 10000 3827"
 xmlns:xlink="http://www.w3.org/1999/xlink"
 xmlns:xodm="http://www.corel.com/coreldraw/odm/2003">
 <defs>
  <style type="text/css">
   <![CDATA[
    .fil0 {fill:#D9D2D0}
    .fil1 {fill:#D9D2D0;fill-rule:nonzero}
   ]]>
  </style>
 </defs>
 <g id="Camada_x0020_1">
  <metadata id="CorelCorpID_0Corel-Layer"/>
  <g id="_2235581529440">
   <polygon class="fil0" points="297.24,733.25 868.32,733.25 868.32,164.17 1025.32,7.18 1025.32,7.18 1182.33,164.17 1182.33,733.25 1753.4,733.25 1910.4,890.25 1910.4,890.25 1753.4,1047.26 1182.33,1047.26 1182.33,1478.58 1894.21,1478.58 2051.2,1635.58 2051.2,1635.58 1894.21,1792.59 1182.33,1792.59 1182.33,3677.1 1025.32,3834.09 1025.32,3834.09 868.32,3677.1 868.32,1792.59 156.44,1792.59 -0.56,1635.58 -0.56,1635.58 156.44,1478.58 868.32,1478.58 868.32,1047.26 297.24,1047.26 140.24,890.25 140.24,890.25 "/>
   <path class="fil1" d="M3436.81 2400.74l0 -232.95c-85.23,58.24 -161.94,93.75 -267.05,93.75 -180.4,0 -335.23,-136.37 -335.23,-340.92 0,-205.96 154.83,-339.49 335.23,-339.49 105.11,0 181.82,31.25 267.05,88.07l0 -230.11c-75.29,-39.78 -169.04,-72.45 -291.2,-72.45 -294.04,0 -545.46,220.17 -545.46,553.98 0,333.82 251.42,553.99 545.46,553.99 122.16,0 214.49,-32.67 291.2,-73.87zm519.88 69.61c234.38,0 413.36,-170.46 413.36,-413.36 0,-245.74 -178.98,-413.36 -413.36,-413.36 -231.53,0 -413.35,167.62 -413.35,413.36 0,244.32 181.82,413.36 413.35,413.36zm0 -204.55c-93.75,0 -183.24,-75.29 -183.24,-208.81 0,-133.52 89.49,-208.81 183.24,-208.81 93.75,0 184.66,75.29 184.66,208.81 0,132.1 -90.91,208.81 -184.66,208.81zm1000.02 -622.17c-107.96,0 -190.35,56.82 -237.22,130.69l-4.26 0 -22.73 -110.8 -176.14 0 0 786.94 227.28 0 0 -465.91c0,-78.13 55.4,-134.95 136.36,-134.95 82.39,0 125,44.04 125,140.63l0 460.23 227.28 0 0 -525.57c0,-176.14 -105.12,-281.26 -275.57,-281.26zm723.02 -161.93l-218.75 0 0 181.82 -112.22 0 0 187.5 110.8 0 0 296.88c0,196.02 112.21,319.61 321.02,319.61 55.4,0 90.91,-5.69 123.58,-12.79l0 -190.34c-25.56,4.26 -49.71,7.1 -71.02,7.1 -88.07,0 -153.41,-38.35 -153.41,-137.78l0 -282.68 210.23 0 0 -187.5 -210.23 0 0 -181.82zm357.96 968.76l227.28 0 0 -384.95c0,-147.73 90.91,-198.86 186.08,-198.86 21.31,0 44.03,1.42 65.34,7.1l0 -213.07c-17.05,-4.26 -35.51,-5.68 -59.66,-5.68 -69.6,0 -160.51,31.25 -213.07,126.42l-2.84 0 -22.73 -117.9 -180.4 0 0 786.94zm948.87 19.89c234.38,0 413.36,-170.46 413.36,-413.36 0,-245.74 -178.98,-413.36 -413.36,-413.36 -231.53,0 -413.35,167.62 -413.35,413.36 0,244.32 181.82,413.36 413.35,413.36zm0 -204.55c-93.75,0 -183.24,-75.29 -183.24,-208.81 0,-133.52 89.49,-208.81 183.24,-208.81 93.75,0 184.66,75.29 184.66,208.81 0,132.1 -90.91,208.81 -184.66,208.81zm561.09 184.66l227.28 0 0 -1140.64 -227.28 0 0 1140.64zm977.28 0l230.12 0 0 -848.02 309.66 0 0 -211.65 -850.86 0 0 211.65 311.08 0 0 848.02zm1291.21 -544.04c88.07,-38.35 154.83,-113.64 154.83,-231.54 0,-157.67 -126.42,-284.09 -366.48,-284.09l-396.31 0 0 1059.67 413.35 0c255.69,0 377.85,-137.79 377.85,-296.88 0,-116.48 -63.92,-207.39 -183.24,-247.16zm-377.85 -319.61l161.94 0c98.01,0 151.99,51.14 151.99,120.74 0,68.19 -52.56,123.59 -156.25,123.59l-157.68 0 0 -244.33zm166.2 667.63l-166.2 0 0 -259.95 170.46 0c99.43,0 164.78,51.14 164.78,129.26 0,75.29 -58.24,130.69 -169.04,130.69z"/>
  </g>
 </g>
</svg>
